<svg width="487" height="466" viewBox="0 0 487 466" fill="none" xmlns="http://www.w3.org/2000/svg">
<path d="M486.099 175.811C484.499 170.911 480.299 167.411 475.199 166.611L323.199 145.011L254.799 7.51096C252.499 2.91096 247.799 0.0109558 242.699 0.0109558C237.599 0.0109558 232.899 2.91096 230.599 7.61096L163.099 145.511L11.0989 168.111C5.99886 168.911 1.79886 172.411 0.198857 177.311C-1.40114 182.211 -0.00114322 187.611 3.69886 191.111L113.999 298.011L88.4989 449.411C87.5989 454.511 89.6989 459.611 93.8989 462.611C96.1989 464.311 98.9989 465.211 101.799 465.211C103.999 465.211 106.099 464.711 108.099 463.611L243.799 391.711L379.899 462.811C381.899 463.811 383.999 464.311 386.099 464.311C393.499 464.311 399.599 458.211 399.599 450.811C399.599 449.711 399.499 448.711 399.199 447.711L372.899 297.211L482.499 189.711C486.399 186.111 487.699 180.711 486.099 175.811ZM333.5 274C326.5 282 328.5 298.011 331 303L353 403L255 349C251.1 346.9 235 347 231 349L134.5 403L156 303C156.7 298.6 159 283.5 150 274L63.5 198.5L173.5 186.5C184.5 186.5 193 183.5 198 173.5L242 63.5L287.5 173.5C293.5 183.5 299.5 186.5 309.5 186.5L415 198.5L333.5 274Z" fill="url(#paint0_linear_361_4)"/>
<defs>
<linearGradient id="paint0_linear_361_4" x1="243.621" y1="-4.98914" x2="243.621" y2="460.211" gradientUnits="userSpaceOnUse">
<stop stop-color="#8132E4"/>
<stop offset="0.463542" stop-color="#913CE0"/>
<stop offset="1" stop-color="#CF63D3"/>
</linearGradient>
</defs>
</svg>
