<svg xmlns="http://www.w3.org/2000/svg" width="41" height="46" viewBox="0 0 41 46" class="ml-3 ml-md-0">
                    <defs>
                        <style>
                            .logo-text {
                                fill: #173647;
                            }

                            .b {
                                fill: #23d96c;
                            }

                            .b,
                            .d {
                                fill-rule: evenodd;
                            }

                            .c,
                            .d {
                                fill: #173647;
                            }
                        </style>
                    </defs>
                    <g transform="translate(-2393.068 -302.52)">
                        <g transform="translate(2393.068 302.52)">
                            <path class="b" d="M2424.8,307.614q-.528-.317-1.08-.593c-.376-.184-.762-.363-1.154-.518-.124-.052-.247-.1-.372-.149-.343-.127-.689-.268-1.042-.371a19.427,19.427,0,1,0-9.792,37.51v5.56c11.676-1.753,22.016-10.979,22.787-23.093C2434.606,318.671,2430.954,311.23,2424.8,307.614Z" transform="translate(-2394.517 -303.969)"></path>
                            <path class="c" d="M2408.855,348.827v-5.935a20.472,20.472,0,1,1,11.172-39.357c.274.08.557.187.832.291l.248.093c.165.064.291.113.417.167.348.137.739.313,1.208.543q.589.295,1.153.633c6.393,3.756,10.354,11.518,9.857,19.316-.763,12-10.722,22.122-23.679,24.067Zm4.8-44.214h-.026a18.366,18.366,0,0,0-3.524,36.408l.85.165v5.18c11.392-2.224,20.009-11.272,20.686-21.922.448-7.033-3.1-14.018-8.83-17.383l-.008-.005c-.331-.2-.671-.385-1.01-.555-.409-.2-.752-.355-1.071-.481-.129-.055-.236-.1-.344-.138l-.27-.1c-.247-.094-.481-.183-.708-.249A18.425,18.425,0,0,0,2413.657,304.613Z" transform="translate(-2393.068 -302.52)"></path>
                            <path class="d" d="M2423.863,327.614a1.8,1.8,0,0,1,1.583.608,4.184,4.184,0,0,1,.728,1.107c.645,1.422,1.027,3.461.23,4.605a6.334,6.334,0,0,1-3.981-3.087,3.236,3.236,0,0,1-.347-1.339A1.957,1.957,0,0,1,2423.863,327.614Zm-5.683,8.025a7.742,7.742,0,0,0,1.218.737,5.789,5.789,0,0,0,4.883-.138,6.116,6.116,0,0,0-3.345-3.45,3.664,3.664,0,0,0-1.442-.321,1.884,1.884,0,0,0-.319,0A1.766,1.766,0,0,0,2418.18,335.639Zm6.1,3.433c-.777-.518-2.379-.309-3.312-.292a4.416,4.416,0,0,0-1.666.352,3.5,3.5,0,0,0-1.218.738,1.817,1.817,0,0,0,1.409,3.171,3.3,3.3,0,0,0,1.442-.321C2422.371,342.1,2424.076,340.4,2424.281,339.072Zm2.61,2a6.556,6.556,0,0,0-3.724,3.506,3.091,3.091,0,0,0-.321,1.314,1.907,1.907,0,0,0,3.3,1.346,7.422,7.422,0,0,0,.7-1.218C2427.466,344.687,2427.711,342.3,2426.891,341.072Zm2.557-7.167a5.941,5.941,0,0,0,3.7-3.167,3.243,3.243,0,0,0,.319-1.346,1.915,1.915,0,0,0-1.794-1.954,1.832,1.832,0,0,0-1.6.641,7.382,7.382,0,0,0-.705,1.218C2428.747,330.731,2428.525,332.777,2429.448,333.9Zm4.208,12.115a3.244,3.244,0,0,0-.321-1.345,5.869,5.869,0,0,0-3.554-3.269,5.386,5.386,0,0,0-.226,4.711,4.147,4.147,0,0,0,.7,1.121C2431.387,348.468,2433.759,347.558,2433.656,346.02Zm4.2-6.28a7.466,7.466,0,0,0-1.217-.7,4.425,4.425,0,0,0-1.666-.352,6.4,6.4,0,0,0-3.188.555,5.959,5.959,0,0,0,3.316,3.386,3.672,3.672,0,0,0,1.442.32A1.8,1.8,0,0,0,2437.852,339.74Z" transform="translate(-2407.197 -317.034)"></path>
                        </g>
                    </g>
                </svg>